<?xml version="1.0" standalone="no"?>
<!DOCTYPE svg PUBLIC "-//W3C//DTD SVG 20010904//EN"
 "http://www.w3.org/TR/2001/REC-SVG-20010904/DTD/svg10.dtd">
<svg version="1.0" xmlns="http://www.w3.org/2000/svg"
 width="860.000000pt" height="715.000000pt" viewBox="0 0 860.000000 715.000000"
 preserveAspectRatio="xMidYMid meet">

<g transform="translate(0.000000,715.000000) scale(0.100000,-0.100000)"
fill="#000000" stroke="none">
<path d="M388 6703 c-23 -6 -23 -6 9 -55 26 -43 47 -68 57 -68 2 0 22 -17 43
-38 78 -77 343 -132 343 -71 0 10 -4 21 -10 24 -5 3 -10 13 -10 21 0 28 -63
104 -109 133 -74 45 -136 61 -225 60 -45 -1 -89 -3 -98 -6z"/>
<path d="M3872 6327 c-13 -47 -53 -116 -81 -141 -22 -20 -29 -56 -11 -56 21 0
89 40 104 62 17 24 20 102 7 148 -7 24 -8 23 -19 -13z"/>
<path d="M4292 4817 c43 -54 91 -150 114 -228 14 -45 38 -78 50 -66 12 11 24
84 24 142 0 48 -5 67 -22 89 -37 48 -54 59 -133 88 l-75 27 42 -52z"/>
<path d="M7610 4682 c0 -4 6 -16 14 -27 11 -17 23 -114 30 -235 1 -14 5 -31 9
-38 5 -7 6 -20 3 -30 -4 -12 1 -26 14 -37 11 -10 17 -22 14 -27 -4 -5 3 -16
15 -24 12 -8 21 -22 21 -30 0 -8 7 -17 15 -20 8 -4 15 -13 15 -20 0 -8 11 -20
25 -26 14 -6 25 -17 25 -24 0 -6 14 -17 30 -23 17 -5 30 -14 30 -18 0 -4 19
-16 43 -27 23 -10 49 -22 58 -26 26 -14 154 -23 204 -16 66 10 95 41 95 101 0
26 -6 59 -14 73 -8 15 -17 34 -20 42 -4 8 -18 33 -31 55 -14 22 -33 56 -41 75
-9 19 -25 41 -35 48 -10 7 -19 19 -19 26 0 8 -8 16 -17 20 -10 3 -40 19 -68
36 -27 17 -59 35 -70 40 -11 6 -34 19 -52 30 -18 10 -74 29 -125 41 -55 13
-106 32 -124 45 -32 25 -44 29 -44 16z m647 -544 c-3 -8 -6 -5 -6 6 -1 11 2
17 5 13 3 -3 4 -12 1 -19z"/>
<path d="M2580 4352 c-36 -1 -74 -6 -85 -11 -11 -5 -42 -17 -70 -26 -27 -10
-59 -23 -70 -30 -11 -6 -33 -15 -49 -19 l-30 -7 30 -19 c56 -37 67 -45 85 -64
11 -11 19 -16 19 -11 0 4 8 1 18 -8 10 -9 34 -20 53 -23 19 -4 40 -12 47 -17
9 -7 16 -7 20 -1 4 6 15 13 24 17 15 5 16 4 6 -13 -22 -34 2 -43 126 -48 150
-6 299 12 338 39 36 26 36 68 0 84 -12 5 -25 18 -28 27 -3 10 -11 18 -18 18
-7 0 -21 9 -31 20 -10 11 -26 20 -37 20 -10 0 -18 3 -18 8 0 13 -83 41 -155
52 -97 15 -102 15 -175 12z m-100 -146 c0 -2 -8 -10 -17 -17 -16 -13 -17 -12
-4 4 13 16 21 21 21 13z"/>
<path d="M6040 3924 c-115 -40 -172 -108 -269 -326 -27 -59 -26 -66 2 -41 12
11 69 43 126 72 101 51 218 85 331 98 25 3 62 14 83 26 29 16 37 27 37 49 0
27 -7 33 -92 73 -89 41 -180 62 -218 49z"/>
<path d="M1495 2606 c-11 -56 24 -129 69 -145 58 -22 64 -22 61 -4 -2 10 -7
40 -10 66 -8 57 -54 117 -91 117 -18 0 -24 -7 -29 -34z"/>
<path d="M1020 2016 c-27 -10 -35 -18 -35 -37 0 -55 130 -58 184 -5 l25 25
-37 16 c-43 18 -89 18 -137 1z"/>
<path d="M1220 1825 c-16 -19 2 -74 34 -104 25 -24 103 -51 145 -51 31 0 116
31 134 49 9 10 5 18 -23 42 -63 55 -127 79 -206 79 -51 0 -75 -4 -84 -15z"/>
<path d="M4383 1320 c-29 -9 -72 -30 -96 -47 -49 -34 -97 -111 -97 -153 0 -24
5 -29 33 -33 55 -9 113 12 157 55 45 45 63 93 58 153 l-3 41 -52 -16z"/>
<path d="M2317 804 c-3 -37 -1 -75 3 -83 5 -9 13 -34 19 -57 13 -48 76 -133
109 -145 38 -15 135 -11 160 7 12 8 27 12 32 9 21 -13 9 15 -13 30 -13 8 -48
45 -78 82 -30 37 -77 93 -105 124 -28 31 -55 63 -60 72 -5 8 -21 18 -35 22
-26 6 -26 6 -32 -61z"/>
</g>
</svg>
