<?xml version="1.0" standalone="no"?>
<!DOCTYPE svg PUBLIC "-//W3C//DTD SVG 20010904//EN"
 "http://www.w3.org/TR/2001/REC-SVG-20010904/DTD/svg10.dtd">
<svg version="1.0" xmlns="http://www.w3.org/2000/svg"
 width="1000.000000pt" height="1000.000000pt" viewBox="0 0 1000.000000 1000.000000"
 preserveAspectRatio="xMidYMid meet">

<g transform="translate(0.000000,1000.000000) scale(0.100000,-0.100000)"
fill="#000000" stroke="none">
<path d="M6235 9455 c-133 -23 -216 -51 -350 -116 -105 -51 -130 -66 -153 -87
-7 -6 -22 -17 -32 -22 -47 -25 -179 -155 -244 -239 -89 -117 -170 -268 -168
-316 1 -16 13 -84 28 -150 14 -66 30 -140 34 -165 5 -25 31 -148 58 -275 28
-126 58 -264 66 -305 9 -41 29 -140 46 -220 17 -80 44 -206 60 -280 16 -74 45
-209 64 -300 20 -91 36 -168 36 -171 0 -4 -57 -9 -127 -12 -224 -9 -329 -64
-471 -246 l-18 -24 -38 51 c-78 107 -206 189 -330 211 -37 7 -245 11 -556 11
l-495 0 -58 -116 -58 -115 -64 59 c-70 64 -144 107 -245 143 -64 23 -71 23
-600 27 l-536 3 -108 -210 -107 -211 105 0 106 0 0 -856 0 -855 538 3 c530 4
538 4 602 27 171 60 305 174 379 320 l41 83 0 -216 0 -216 213 0 212 0 0 847
0 848 288 3 288 2 29 -28 c37 -38 43 -85 38 -332 -2 -139 -7 -203 -17 -222
-24 -47 -64 -58 -215 -58 l-136 0 -102 -202 c-57 -112 -104 -208 -106 -214 -1
-6 37 -64 86 -130 49 -65 155 -208 236 -316 l148 -198 264 0 c213 0 263 3 257
13 -4 7 -109 147 -231 311 -123 165 -226 304 -228 311 -4 8 11 14 43 19 66 8
182 66 236 115 24 23 47 41 51 41 3 0 6 -77 6 -171 0 -124 4 -188 16 -233 45
-175 178 -318 352 -378 65 -22 77 -23 432 -23 l365 0 75 28 c145 53 263 168
321 314 l24 58 5 650 6 650 2 -852 2 -853 213 0 212 0 0 847 0 848 285 3 c380
3 357 22 360 -308 1 -228 -4 -262 -41 -298 -28 -26 -33 -27 -180 -32 l-151 -5
-104 -205 c-57 -113 -104 -206 -104 -207 0 -2 116 -3 258 -3 182 0 276 4 323
14 178 38 328 172 391 349 21 58 23 82 26 353 3 238 0 302 -13 359 -46 198
-223 369 -419 404 -37 7 -247 11 -556 11 l-495 0 -53 -105 c-28 -58 -56 -105
-60 -105 -5 0 -18 13 -30 29 -49 66 -235 171 -303 171 -18 0 -19 2 -9 15 7 8
17 15 22 15 6 0 25 12 43 28 18 15 63 47 100 72 37 25 72 50 78 55 7 6 37 27
67 47 30 21 85 59 123 85 191 135 320 226 412 289 44 30 112 78 150 105 39 27
86 61 105 74 19 13 64 45 100 70 36 25 95 66 132 91 68 47 83 70 117 184 46
157 55 386 21 562 -18 96 -48 196 -70 236 -5 9 -17 35 -27 57 -24 57 -88 160
-138 225 -160 206 -405 369 -644 430 -159 39 -360 49 -506 25z m265 -104 c2
-1 -21 -17 -52 -37 -102 -63 -250 -203 -328 -309 -24 -33 -46 -62 -49 -65 -14
-12 -119 -194 -168 -292 -13 -26 -27 -48 -30 -48 -3 0 -31 23 -62 52 -31 28
-78 62 -106 74 -59 27 -174 49 -214 41 -16 -3 -31 -3 -35 0 -7 8 34 80 87 153
44 60 205 220 221 220 5 0 17 7 27 16 68 62 290 154 439 183 86 17 204 22 270
12z m270 -61 c0 -5 -53 -145 -119 -312 -65 -167 -142 -364 -171 -438 -29 -74
-57 -139 -61 -144 -4 -5 -31 12 -59 37 -29 26 -82 61 -118 79 -57 29 -80 34
-164 38 l-98 5 68 126 c38 70 95 164 128 210 63 88 252 286 295 310 108 59
139 73 179 84 55 15 120 18 120 5z m130 -50 c29 -15 89 -115 114 -188 31 -91
50 -270 42 -387 -9 -130 -34 -266 -78 -422 l-21 -72 -48 43 c-98 88 -195 126
-322 126 -51 0 -68 3 -64 13 2 6 26 66 52 132 26 66 81 206 122 310 41 105 80
204 87 220 8 17 31 76 52 132 22 57 40 103 42 103 2 0 12 -4 22 -10z m350
-252 c176 -202 266 -427 277 -698 4 -105 2 -157 -12 -233 -9 -53 -20 -97 -23
-97 -3 0 -28 22 -57 49 -28 27 -69 58 -91 69 -67 34 -162 55 -220 47 -29 -3
-54 -3 -57 2 -3 4 1 26 8 48 17 51 59 229 76 325 9 45 14 145 14 250 0 147 -4
189 -23 263 -12 49 -22 91 -22 94 0 10 85 -68 130 -119z m-1648 -347 c101 -35
134 -58 193 -135 l27 -35 -11 -183 c-11 -190 -18 -313 -26 -508 -3 -63 -10
-182 -15 -265 -5 -82 -12 -217 -16 -300 -4 -94 -10 -143 -15 -130 -5 11 -40
173 -79 360 -39 187 -77 367 -85 400 -8 33 -44 202 -80 375 -36 173 -70 334
-75 357 -16 66 -14 71 28 76 79 8 101 6 154 -12z m604 -239 c61 -31 154 -122
154 -150 0 -12 -21 -67 -231 -597 -54 -137 -136 -346 -182 -463 -47 -117 -86
-207 -89 -200 -2 7 -1 76 3 153 22 393 39 713 44 830 3 72 10 195 15 275 5 80
10 153 10 162 0 21 32 27 135 24 67 -2 90 -8 141 -34z m518 -202 c97 -37 189
-136 166 -180 -6 -11 -14 -20 -18 -20 -4 0 -15 -12 -24 -27 -9 -16 -29 -42
-45 -58 -15 -17 -62 -71 -103 -120 -73 -87 -167 -198 -300 -356 -36 -42 -74
-87 -85 -100 -11 -13 -47 -56 -80 -95 -33 -39 -76 -90 -95 -114 -19 -23 -44
-52 -55 -65 -52 -60 -96 -112 -109 -130 -9 -11 -16 -17 -16 -13 0 5 51 137
114 295 115 291 184 465 317 803 40 102 74 187 76 189 8 10 91 19 143 16 30
-2 81 -13 114 -25z m487 -196 c30 -9 75 -27 101 -40 49 -25 124 -106 113 -123
-3 -6 -47 -40 -98 -76 -51 -35 -96 -68 -102 -73 -5 -4 -40 -28 -77 -52 -38
-24 -68 -48 -68 -52 0 -4 -5 -8 -10 -8 -6 0 -37 -19 -69 -42 -33 -24 -67 -49
-78 -55 -10 -7 -52 -36 -93 -65 -41 -29 -101 -71 -133 -93 -31 -22 -94 -66
-140 -98 -45 -32 -98 -69 -117 -82 -19 -13 -66 -47 -105 -75 -38 -27 -79 -54
-90 -59 -11 -5 -29 -18 -39 -30 -11 -11 -24 -21 -31 -21 -7 0 -20 -9 -30 -20
-10 -11 -22 -20 -27 -20 -7 0 173 221 219 268 7 8 26 30 41 50 15 21 32 42 38
47 11 10 101 117 164 195 19 23 44 52 56 64 11 12 50 57 85 101 35 43 77 93
92 110 36 39 44 48 102 120 96 120 103 126 153 135 72 12 84 11 143 -6z
m-4062 -1658 c23 -16 54 -50 69 -75 l27 -46 3 -459 c2 -312 0 -474 -8 -503
-14 -59 -44 -103 -94 -139 l-41 -29 -300 0 -300 0 -2 634 c-1 349 0 638 3 643
3 5 138 8 303 6 l298 -3 42 -29z m2987 0 l34 -34 0 -577 0 -577 -34 -34 -34
-34 -298 0 c-280 0 -301 1 -331 20 -18 11 -36 32 -40 47 -5 15 -8 276 -8 578
0 303 3 563 8 578 4 15 22 36 40 47 30 19 51 20 331 20 l298 0 34 -34z"/>
<path d="M1850 4380 l0 -80 2995 0 2996 0 -3 78 -3 77 -2992 3 -2993 2 0 -80z"/>
<path d="M1489 3960 c-58 -116 -103 -213 -100 -215 2 -3 49 -5 103 -5 l98 0 0
-850 0 -850 478 0 478 0 74 151 c41 83 78 152 81 155 4 2 23 -23 43 -56 46
-74 132 -152 211 -190 114 -56 149 -60 501 -60 284 0 329 2 396 19 188 48 335
192 383 376 23 88 23 1252 0 1340 -49 186 -203 334 -396 380 -93 22 -679 22
-764 0 -206 -53 -367 -219 -405 -420 -8 -42 -10 -244 -8 -663 l3 -602 -327 0
-328 0 0 850 0 850 -207 0 -208 0 -106 -210z m2307 -244 l34 -34 0 -577 0
-577 -34 -34 -34 -34 -296 0 c-323 0 -338 2 -366 56 -22 41 -22 1137 0 1178
28 53 40 55 364 56 l298 0 34 -34z"/>
<path d="M4695 4159 c-197 -39 -378 -224 -414 -423 -7 -38 -11 -269 -11 -640
0 -483 3 -592 15 -645 47 -199 225 -367 426 -401 43 -8 179 -10 400 -8 310 4
338 6 391 25 174 65 313 219 347 386 8 35 11 252 9 675 l-3 622 218 0 217 0 0
-855 0 -855 210 0 210 0 0 855 0 855 194 0 194 0 106 210 107 210 -671 -2
-671 -3 -20 -35 c-10 -19 -46 -86 -78 -148 l-58 -114 -27 46 c-58 98 -162 182
-286 229 -52 20 -77 21 -405 23 -198 1 -372 -2 -400 -7z m711 -443 l34 -34 0
-577 0 -577 -34 -34 -34 -34 -296 0 c-323 0 -338 2 -366 56 -21 38 -22 1122
-2 1169 26 63 36 64 366 65 l298 0 34 -34z"/>
<path d="M7602 4159 c-30 -5 -86 -23 -126 -39 -169 -71 -300 -207 -363 -380
-25 -67 -27 -89 -28 -205 0 -132 9 -179 53 -275 70 -153 224 -287 395 -342 53
-18 100 -21 327 -27 288 -7 295 -8 352 -68 30 -31 58 -100 58 -143 0 -42 -28
-112 -58 -144 -61 -65 -65 -66 -504 -66 l-398 0 -105 -210 c-58 -115 -105
-212 -105 -215 0 -4 242 -5 538 -3 514 3 540 4 599 24 145 50 288 163 360 285
185 312 80 710 -233 885 -126 70 -159 76 -454 83 l-265 6 -42 27 c-137 89
-130 292 12 370 l50 28 407 0 408 0 105 210 105 210 -517 -1 c-285 -1 -542 -5
-571 -10z"/>
</g>
</svg>
